<svg width="180" height="55" viewBox="0 0 180 55" fill="none" xmlns="http://www.w3.org/2000/svg">
<path d="M68.0473 46.6064C65.7003 46.1967 63.291 46.3228 60.9996 46.9755C58.7083 47.6281 56.5941 48.7903 54.8152 50.3752C54.3158 50.8298 53.6233 51.3515 53.0356 51.0147C52.8091 50.8568 52.6309 50.6391 52.521 50.3858C52.0568 49.5238 51.663 48.6258 51.3432 47.7005C50.9337 48.1685 50.6689 48.7455 50.5812 49.3611C50.3986 49.95 49.9629 50.5966 49.3446 50.5577C48.685 50.5118 48.3623 49.7474 48.1868 49.1103C47.3514 46.0552 46.5525 42.9942 45.7901 39.9273L43.6478 52.8826C43.4923 53.8248 42.9788 55.0332 42.0437 54.8624C41.3582 54.7376 41.0732 53.9285 40.9154 53.2489L39.4137 46.7559L37.8061 51.209C37.7602 51.4242 37.6693 51.6272 37.5394 51.8048C37.4095 51.9824 37.2435 52.1306 37.0524 52.2396C36.7789 52.2964 36.4942 52.2549 36.2484 52.1224C36.0026 51.9899 35.8114 51.7749 35.7085 51.5152C35.4565 51.0159 35.3953 50.4423 35.1538 49.9382C34.9084 49.5011 34.5656 49.1264 34.152 48.8431C33.7384 48.5598 33.2651 48.3756 32.7689 48.3047C31.7748 48.1716 30.7665 48.1847 29.7762 48.3436C20.0546 49.3707 10.237 49.029 0.610342 47.3283C0.311193 47.2753 -0.208196 46.9385 0.0885975 46.6217C0.27586 46.4226 1.57021 46.7159 1.84816 46.7395C3.09108 46.8423 4.33557 46.9283 5.58163 46.9974C8.07219 47.1348 10.5663 47.2043 13.0639 47.2058C18.0545 47.2126 23.0418 46.9476 28.0037 46.412C28.748 46.3335 29.4912 46.2468 30.2332 46.1518C32.3957 45.6886 34.6377 45.7492 36.772 46.3284C36.9115 43.87 37.2926 41.4313 37.9098 39.0476C37.9631 38.7041 38.1249 38.3868 38.3714 38.1419C38.6082 37.9961 38.8901 37.9418 39.164 37.9893C39.4379 38.0368 39.6851 38.1828 39.8589 38.3998C40.1929 38.8466 40.4088 39.3703 40.4867 39.9226L42.1909 47.4602C42.6934 44.1146 43.2921 40.7851 43.987 37.4717C44.2143 36.3858 44.8373 35.0161 45.9338 35.1881C46.3899 35.303 46.7863 35.5851 47.0444 35.9783C48.4342 37.7626 48.6662 40.1688 48.7298 42.4277C48.7451 42.9659 49.0466 43.7232 49.546 43.5254C49.7226 43.4559 49.8274 43.2804 49.9582 43.1426C50.6118 42.4571 51.8532 42.8623 52.3879 43.642C52.8286 44.4825 53.1082 45.398 53.2123 46.3414C53.2518 46.6013 53.3613 46.8456 53.5291 47.048C54.0002 47.5274 54.7917 47.2471 55.4029 46.9738C59.407 45.2006 63.9469 45.0687 68.0473 46.6064Z" fill="#FF6B48"/>
<path d="M47.453 11.5542C47.3542 11.8459 47.2108 12.1204 47.0279 12.3681C46.4783 13.0192 45.7532 13.4986 44.9388 13.7492C44.1244 13.9998 43.2552 14.011 42.4346 13.7814C41.7891 13.5544 41.124 13.3872 40.4478 13.282C40.1083 13.237 39.7633 13.2993 39.4611 13.4603C39.1588 13.6212 38.9145 13.8727 38.7624 14.1794C38.6783 14.4581 38.6662 14.7534 38.7271 15.038C39.0776 16.2125 39.5784 17.3367 40.2169 18.3828C41.0387 20.2139 41.1264 22.2906 40.4619 24.1845C40.0664 25.0557 39.7296 25.9524 39.4538 26.8686C39.3222 27.33 39.3223 27.819 39.4541 28.2804C39.5858 28.7418 39.8439 29.1572 40.1993 29.4796L35.7568 25.4258C37.6711 27.6936 39.4221 30.0944 40.9966 32.6101C42.026 34.3461 42.881 36.585 41.8081 38.2963C41.6353 37.7519 41.306 37.2704 40.8613 36.912C40.4167 36.5536 39.8763 36.334 39.3076 36.2808C38.739 36.2275 38.1672 36.3429 37.6637 36.6125C37.1602 36.8821 36.7473 37.2941 36.4764 37.7969C35.5554 39.5035 36.3692 41.9944 34.917 43.2841C34.371 43.696 33.7312 43.966 33.055 44.0696C30.0859 44.7534 27.0557 45.1374 24.0099 45.2156C24.7885 43.1143 25.1842 40.8905 25.1782 38.6496C24.764 40.2943 24.2644 41.9163 23.6813 43.509C23.5421 44.0055 23.2805 44.459 22.9205 44.8281C22.3026 45.2448 21.5585 45.4323 20.817 45.3581C18.4356 45.3899 15.9541 45.4923 13.535 45.3381C12.4515 45.3595 11.3812 45.0985 10.4292 44.5808C9.52753 43.9997 8.73105 43.2697 8.07371 42.4219C6.64969 40.7656 5.67623 38.7704 5.24711 36.6286C5.04017 35.5585 5.05823 34.4571 5.30012 33.3944C5.54202 32.3317 6.00247 31.331 6.65217 30.456C6.46192 33.1798 7.06755 35.9002 8.39534 38.286C9.72314 40.6718 11.7158 42.6203 14.1309 43.8941C13.5656 39.9604 13.0215 35.8136 14.4689 32.1166C15.5972 29.2311 17.8208 26.9345 19.989 24.7203C19.81 29.4914 22.3763 34.1058 21.8958 38.8534C23.1513 35.9667 21.7957 32.6984 21.3187 29.588C21.0494 27.8218 21.0725 26.0233 21.387 24.2645C21.5708 23.2387 21.7922 22.0103 21.0337 21.3013C20.3816 20.8919 19.6356 20.6563 18.8666 20.617C18.2446 20.4654 17.6673 20.1688 17.1818 19.7514C16.6962 19.3341 16.3163 18.8078 16.073 18.2156C15.9627 18.0006 15.9052 17.7624 15.9052 17.5207C15.9052 17.2791 15.9627 17.0409 16.073 16.8259C16.2719 16.5962 16.5014 16.3949 16.7549 16.2276C17.7866 15.349 17.8632 13.5705 19.0786 12.9711C19.4715 12.8462 19.8533 12.6886 20.2199 12.5C21.2257 11.7721 20.3906 10.6968 20.4966 9.82412C21.4261 10.4492 22.2713 11.1914 23.0111 12.0324L23.8674 9.6769C24.8248 11.4545 25.9762 13.1206 27.3005 14.6447C27.1439 14.1535 27.0438 13.4952 27.4854 13.2314C27.7766 13.1156 28.0983 13.1019 28.3982 13.1925C28.9288 13.2429 29.464 13.1845 29.9713 13.021C30.4785 12.8575 30.9471 12.5922 31.3484 12.2415C31.7496 11.8907 32.0751 11.4618 32.305 10.9809C32.5348 10.5001 32.6642 9.97743 32.6852 9.44488C31.8066 11.0784 30.4757 12.9687 28.6314 12.7426C28.0021 12.6118 27.4304 12.285 26.9984 11.8091C26.5663 11.3333 26.2961 10.7328 26.2264 10.0938C26.1184 8.80759 26.3964 7.51838 27.0249 6.39097C27.6963 4.84216 28.7167 3.4695 30.0062 2.38016C31.2958 1.29082 32.8197 0.514291 34.4589 0.111196C37.7696 -0.49888 41.5949 1.45148 42.3498 4.7327C42.4156 5.33465 42.5993 5.91774 42.8904 6.44868C43.6265 7.47215 45.1965 7.31786 46.2977 7.93265C46.8724 8.31583 47.2998 8.88299 47.5097 9.54106C47.7197 10.1991 47.6997 10.909 47.453 11.5542Z" fill="#FF6B48"/>
<path d="M61.3152 41.2807C61.3152 41.4719 61.3911 41.6552 61.5263 41.7904C61.6615 41.9255 61.8448 42.0015 62.036 42.0015H65.528C65.7172 41.9953 65.897 41.9174 66.0308 41.7835C66.1647 41.6497 66.2426 41.4699 66.2488 41.2807V31.6891H75.6107C75.7999 31.6829 75.9797 31.605 76.1136 31.4711C76.2474 31.3373 76.3253 31.1575 76.3315 30.9683V27.859C76.3253 27.6698 76.2474 27.4901 76.1136 27.3562C75.9797 27.2223 75.7999 27.1444 75.6107 27.1382H66.2417V20.0128H77.4645C77.6557 20.0128 77.839 19.9369 77.9742 19.8017C78.1094 19.6665 78.1853 19.4832 78.1853 19.2921V16.1851C78.1853 15.994 78.1094 15.8106 77.9742 15.6755C77.839 15.5403 77.6557 15.4644 77.4645 15.4644H62.036C61.8448 15.4644 61.6615 15.5403 61.5263 15.6755C61.3911 15.8106 61.3152 15.994 61.3152 16.1851V41.2807Z" fill="#FF6B48"/>
<path d="M83.2178 21.4486C83.7356 21.4495 84.242 21.2968 84.6729 21.0097C85.1038 20.7225 85.4398 20.314 85.6384 19.8357C85.8369 19.3575 85.889 18.8311 85.7881 18.3232C85.6873 17.8154 85.4379 17.3488 85.0717 16.9828C84.7055 16.6167 84.2388 16.3676 83.7309 16.2669C83.223 16.1663 82.6966 16.2186 82.2185 16.4174C81.7403 16.6161 81.3319 16.9523 81.045 17.3834C80.7581 17.8144 80.6055 18.3209 80.6067 18.8387C80.6083 19.5306 80.8839 20.1937 81.3733 20.6829C81.8626 21.172 82.5259 21.4474 83.2178 21.4486ZM80.98 41.2749C80.9862 41.4641 81.0641 41.6439 81.198 41.7777C81.3319 41.9116 81.5116 41.9895 81.7008 41.9957H84.8466C85.0358 41.9895 85.2156 41.9116 85.3494 41.7777C85.4833 41.6439 85.5612 41.4641 85.5674 41.2749V27.5576C85.5674 27.3665 85.4914 27.1831 85.3563 27.0479C85.2211 26.9128 85.0378 26.8368 84.8466 26.8368H81.702C81.5108 26.8368 81.3275 26.9128 81.1923 27.0479C81.0572 27.1831 80.9812 27.3665 80.9812 27.5576L80.98 41.2749Z" fill="#FF6B48"/>
<path d="M90.1255 41.2805C90.1317 41.4697 90.2096 41.6495 90.3434 41.7833C90.4773 41.9172 90.6571 41.9951 90.8463 42.0013H93.7647C94.2959 42.0013 94.6363 41.8117 94.6363 41.2805V32.1023C94.9069 31.6279 95.2992 31.2343 95.7727 30.9621C96.2461 30.6898 96.7837 30.5488 97.3298 30.5535C97.7043 30.579 98.0736 30.6555 98.4275 30.7808C98.5887 30.8474 98.7695 30.849 98.9319 30.7853C99.0943 30.7217 99.2259 30.5977 99.299 30.4393L100.702 27.9754C101.156 27.0332 99.564 26.4585 97.7832 26.4585C96.9324 26.4774 96.0986 26.7014 95.3529 27.1114C94.6071 27.5215 93.9714 28.1056 93.4997 28.814L92.9686 27.343C92.9238 27.198 92.8331 27.0715 92.71 26.9827C92.587 26.8939 92.4384 26.8475 92.2867 26.8507H90.8463C90.6551 26.8507 90.4718 26.9266 90.3366 27.0618C90.2014 27.197 90.1255 27.3803 90.1255 27.5715V41.2805Z" fill="#FF6B48"/>
<path d="M103.045 41.2808C103.052 41.47 103.13 41.6497 103.263 41.7836C103.397 41.9175 103.577 41.9954 103.766 42.0016H106.837C107.026 41.9954 107.206 41.9175 107.339 41.7836C107.473 41.6497 107.551 41.47 107.557 41.2808V32.9411C107.763 32.2554 108.182 31.6535 108.754 31.2236C109.327 30.7938 110.022 30.5586 110.737 30.5526C112.671 30.5526 113.543 31.8034 113.543 33.775V41.2808C113.543 41.3754 113.561 41.4692 113.598 41.5566C113.634 41.6441 113.687 41.7235 113.754 41.7905C113.821 41.8574 113.9 41.9105 113.988 41.9467C114.075 41.9829 114.169 42.0016 114.264 42.0016H117.107C117.296 41.9954 117.476 41.9175 117.609 41.7836C117.743 41.6497 117.821 41.47 117.827 41.2808V33.5854C117.827 32.9034 117.79 32.145 117.79 32.145C118.15 31.6407 118.628 31.2318 119.182 30.9537C119.736 30.6757 120.35 30.5368 120.97 30.5491C122.865 30.5491 123.813 31.7999 123.813 33.7714V41.2714C123.813 41.366 123.831 41.4597 123.868 41.5472C123.904 41.6346 123.957 41.7141 124.024 41.781C124.091 41.848 124.17 41.9011 124.258 41.9373C124.345 41.9735 124.439 41.9921 124.534 41.9921H127.604C127.699 41.9921 127.792 41.9735 127.88 41.9373C127.967 41.9011 128.047 41.848 128.114 41.781C128.181 41.7141 128.234 41.6346 128.27 41.5472C128.306 41.4597 128.325 41.366 128.325 41.2714V34.04C128.325 30.0592 126.543 26.4576 121.69 26.4576C119.669 26.5125 117.75 27.3583 116.346 28.8131C115.771 28.0569 115.024 27.4487 114.167 27.039C113.31 26.6294 112.368 26.43 111.418 26.4576C110.463 26.4589 109.518 26.6585 108.644 27.0437C107.769 27.4289 106.984 27.9913 106.338 28.6953L105.807 27.2549C105.759 27.1255 105.67 27.0152 105.554 26.9401C105.438 26.865 105.301 26.8292 105.163 26.838H103.76C103.569 26.838 103.386 26.9139 103.251 27.0491C103.115 27.1843 103.04 27.3676 103.04 27.5588L103.045 41.2808Z" fill="#FF6B48"/>
<path d="M133.171 41.2808C133.171 41.472 133.247 41.6553 133.382 41.7905C133.517 41.9257 133.701 42.0016 133.892 42.0016H137.384C137.573 41.9954 137.753 41.9175 137.887 41.7836C138.021 41.6498 138.099 41.47 138.105 41.2808V32.3723H142.839C145.082 32.3676 147.231 31.4723 148.813 29.8832C150.396 28.2941 151.282 26.1415 151.277 23.899C151.273 21.6564 150.377 19.5075 148.788 17.9251C147.199 16.3426 145.047 15.4563 142.804 15.461H133.895C133.704 15.461 133.521 15.5369 133.386 15.6721C133.251 15.8072 133.175 15.9906 133.175 16.1817L133.171 41.2808ZM138.099 27.7473V20.1272H142.497C142.995 20.1109 143.491 20.1932 143.957 20.3694C144.424 20.5456 144.85 20.8122 145.213 21.1539C145.576 21.4956 145.868 21.9057 146.072 22.3605C146.275 22.8153 146.387 23.3059 146.401 23.8042C146.406 24.32 146.308 24.8317 146.114 25.3096C145.92 25.7876 145.633 26.2224 145.27 26.589C144.907 26.9556 144.475 27.2466 143.999 27.4454C143.523 27.6442 143.012 27.7468 142.497 27.7473H138.099Z" fill="#FF6B48"/>
<path d="M151.996 34.4153C151.965 35.4533 152.144 36.4869 152.521 37.4544C152.898 38.4219 153.467 39.3035 154.192 40.0464C154.918 40.7894 155.786 41.3786 156.744 41.7788C157.702 42.179 158.731 42.382 159.77 42.3757C161.851 42.4273 163.873 41.6815 165.423 40.2911C165.5 40.2356 165.564 40.1632 165.609 40.0794C165.654 39.9956 165.679 39.9025 165.683 39.8074C165.687 39.7123 165.669 39.6176 165.63 39.5305C165.591 39.4435 165.533 39.3665 165.46 39.3053L163.906 37.5233C163.641 37.2242 163.299 37.296 162.92 37.5233C162.051 38.127 161.021 38.4553 159.963 38.4655C159.052 38.475 158.172 38.1407 157.497 37.5294C156.823 36.918 156.403 36.0747 156.323 35.1678H166.028C166.206 35.166 166.377 35.0997 166.51 34.9812C166.642 34.8627 166.727 34.7001 166.749 34.5236C166.793 34.1841 166.818 33.8424 166.824 33.5001C166.838 32.5671 166.664 31.6408 166.312 30.7766C165.961 29.9123 165.438 29.1277 164.777 28.4697C164.115 27.8116 163.328 27.2935 162.462 26.9464C161.596 26.5992 160.668 26.43 159.735 26.4489C158.702 26.454 157.68 26.665 156.729 27.0697C155.778 27.4743 154.918 28.0645 154.198 28.8057C153.478 29.5469 152.913 30.4243 152.536 31.3865C152.159 32.3486 151.977 33.3763 152.002 34.4094L151.996 34.4153ZM156.659 32.5203C156.758 31.8064 157.112 31.1524 157.656 30.679C158.199 30.2056 158.896 29.9448 159.616 29.9445C160.315 29.9564 160.984 30.2263 161.495 30.7024C162.006 31.1785 162.323 31.8269 162.384 32.5226L156.659 32.5203Z" fill="#FF6B48"/>
<path d="M170.813 37.49C170.813 40.5604 172.102 42.3788 175.021 42.3788C176.568 42.2971 178.092 41.9641 179.532 41.393C179.621 41.3631 179.703 41.3153 179.773 41.2526C179.842 41.1898 179.899 41.1134 179.938 41.0281C179.977 40.9428 179.998 40.8503 180 40.7565C180.002 40.6627 179.984 40.5695 179.949 40.4826L179.191 38.0941C179.173 38.0058 179.136 37.9226 179.081 37.8509C179.027 37.7793 178.957 37.7211 178.876 37.6808C178.795 37.6406 178.707 37.6193 178.617 37.6187C178.527 37.6181 178.438 37.6381 178.357 37.6772C177.763 37.9123 177.136 38.053 176.499 38.0941C175.893 38.0941 175.322 37.9422 175.322 36.8811V30.8156H178.658C178.849 30.8156 179.033 30.7397 179.168 30.6045C179.303 30.4693 179.379 30.286 179.379 30.0949V27.558C179.382 27.4625 179.366 27.3674 179.33 27.2785C179.295 27.1896 179.242 27.1089 179.175 27.0414C179.107 26.9738 179.027 26.9208 178.938 26.8857C178.849 26.8506 178.754 26.8341 178.658 26.8372H175.324V22.5914C175.328 22.4057 175.258 22.2261 175.131 22.0912C175.003 21.9563 174.828 21.8771 174.642 21.8706L171.534 21.9083C171.345 21.9145 171.165 21.9924 171.031 22.1263C170.897 22.2601 170.819 22.4399 170.813 22.6291V26.8348H169.525C169.432 26.8357 169.341 26.8552 169.256 26.8922C169.171 26.9292 169.094 26.983 169.031 27.0503C168.967 27.1176 168.917 27.197 168.885 27.2838C168.853 27.3706 168.838 27.4631 168.843 27.5556V30.0972C168.839 30.2828 168.908 30.4625 169.036 30.5974C169.164 30.7323 169.339 30.8115 169.525 30.818H170.813V37.49Z" fill="#FF6B48"/>
</svg>
