<svg width="69" height="54" viewBox="0 0 69 54" fill="none" xmlns="http://www.w3.org/2000/svg">
<g opacity="0.15">
<path fill-rule="evenodd" clip-rule="evenodd" d="M25.325 30.6874C34 30.6874 42.2418 25.6069 45.8522 17.1454C45.996 16.8198 46.1051 16.4957 46.2126 16.1353C48.0889 10.47 45.3479 4.193 39.719 1.77451C38.2189 1.1359 36.6587 0.833984 35.1255 0.833984C32.6753 0.833984 30.2916 1.60379 28.3173 3.00114C25.7202 4.87745 22.652 6.10409 19.478 6.5372C15.5815 7.11416 12.0454 9.64015 10.3857 13.5366C8.00354 19.1292 10.313 25.588 15.5815 28.4017C15.9055 28.5819 16.1948 28.7273 16.5188 28.8711C19.3957 30.1041 22.3849 30.6874 25.325 30.6874Z" fill="#FF6B48"/>
<path fill-rule="evenodd" clip-rule="evenodd" d="M48.2991 46.2129C49.1527 46.2129 50.0079 46.0548 50.8314 45.7197C54.6567 44.2054 56.3876 39.479 54.6568 35.1842C53.261 31.6529 49.7154 28.9009 46.3738 28.9009C45.653 28.9009 44.9433 29.0289 44.2651 29.304C40.4051 30.8546 39.033 36.4472 40.7654 40.742C42.1233 44.1105 45.193 46.2129 48.2991 46.2129Z" fill="#FF6B48"/>
<path fill-rule="evenodd" clip-rule="evenodd" d="M61.1316 28.6262C63.3288 28.6262 65.4201 27.7457 66.8159 26.0211C69.3766 22.7744 68.5467 17.8315 64.9395 14.9451C63.0933 13.4481 60.6795 12.6436 58.4191 12.6436C56.263 12.6436 54.2476 13.377 52.9973 14.9451C50.3985 18.1919 51.9856 23.7481 55.5944 26.6345C57.2652 27.9702 59.2379 28.6262 61.1316 28.6262Z" fill="#FF6B48"/>
<path fill-rule="evenodd" clip-rule="evenodd" d="M7.88971 50.0085C11.6028 50.0085 14.9096 46.8851 15.5087 42.6535C16.1221 38.0726 13.4159 32.9842 9.33922 32.4073C9.09897 32.3757 8.85868 32.3599 8.62159 32.3599C4.7773 32.3599 1.25546 36.3543 0.643723 40.6697C0.0304037 45.2522 2.84405 49.4016 6.95707 49.9422C7.27007 49.9864 7.58145 50.0085 7.88971 50.0085Z" fill="#FF6B48"/>
<path fill-rule="evenodd" clip-rule="evenodd" d="M30.241 53.4513C31.0882 53.4513 31.9371 53.2964 32.7559 52.9724C36.5796 51.4217 38.3121 46.6953 36.5796 42.4021C35.187 38.874 31.651 36.1504 28.3125 36.1504C27.587 36.1504 26.8709 36.28 26.188 36.5566C22.328 38.0725 20.9574 43.6635 22.6883 47.9931C24.0509 51.3695 27.1286 53.4513 30.241 53.4513Z" fill="#FF6B48"/>
</g>
</svg>
