<svg width="208" height="76" viewBox="0 0 208 76" fill="none" xmlns="http://www.w3.org/2000/svg">
<path fill-rule="evenodd" clip-rule="evenodd" d="M162.187 0.85791C158.129 0.85791 154.035 1.61188 150.34 3.08391C138.982 7.57182 130.812 17.4811 124.454 27.8213C121.284 32.7759 118.548 37.7306 114.472 41.7697C110.686 45.5216 105.723 48.1246 100.307 48.1246C99.89 48.1246 99.4552 48.1066 99.0386 48.0707C89.7275 46.8141 82.391 36.1867 72.9893 36.1867C72.301 36.1867 71.5945 36.2585 70.8881 36.3842C65.4354 36.833 61.3415 41.7697 58.6243 46.2756C55.907 51.2302 53.1717 56.1669 48.643 59.3264C44.6396 62.1987 39.4768 63.0604 34.5496 63.0604C33.3178 63.0604 32.1041 63.0065 30.9266 62.9167C26.9051 62.3602 22.8836 61.7858 18.9889 61.7858C16.7064 61.7858 14.4783 61.9832 12.3226 62.4679C6.4172 63.8143 0.964595 69.2178 0.511719 75.5188H208C197.094 67.4226 192.095 48.9683 189.83 35.9175C188.019 27.3725 188.019 17.9299 183.472 10.7313C178.889 4.0533 170.592 0.85791 162.187 0.85791Z" fill="#D9D9D9" fill-opacity="0.3"/>
</svg>
