<svg width="151" height="38" viewBox="0 0 151 38" fill="none" xmlns="http://www.w3.org/2000/svg">
<path fill-rule="evenodd" clip-rule="evenodd" d="M29.4393 0.0786133C22.5171 0.0786133 15.388 3.80228 10.7732 9.00587C8.76813 10.995 7.17683 13.382 5.98334 16.1827C3.19855 22.5638 1.98916 30.5363 0 37.3153H150.761C142.47 24.8872 125.523 17.042 110.087 17.042C106.204 17.042 102.433 17.5353 98.916 18.5697C92.5348 20.5747 86.5514 23.7573 80.1703 26.1602C76.7012 27.306 72.8343 28.1971 69.0311 28.1971C66.2622 28.1971 63.5411 27.7197 61.0268 26.558C54.2478 22.9617 50.2536 15.7849 45.8616 9.80153C43.4747 6.60299 40.6899 3.8182 37.0935 1.82906C34.6747 0.61966 32.0649 0.0786133 29.4393 0.0786133Z" fill="#D9D9D9" fill-opacity="0.3"/>
</svg>
